# Blender 4.3.2
# www.blender.org
mtllib bullet.mtl
o Bullet.001
v 0.120613 0.043167 -0.385864
v 0.130930 -0.144434 -0.251202
v 0.144434 0.130930 -0.251202
v 0.094912 0.086038 -0.385864
v -0.123009 -0.111508 -0.328949
v -0.006275 -0.127951 -0.385864
v -0.120613 -0.043168 -0.385864
v 0.061346 -0.067673 -0.406696
v 0.039046 0.082574 -0.406696
v -0.082574 0.039046 -0.406696
v -0.061346 0.067673 -0.406696
v -0.091230 0.004474 -0.406696
v 0.065691 -0.183545 0.211313
v 0.065691 0.183544 0.212113
v -0.083335 -0.176236 0.211313
v -0.134306 -0.141058 0.211913
v 0.179891 -0.074513 0.211713
v -0.009549 0.194712 0.212113
v 0.009549 -0.194712 0.212113
v -0.178063 -0.078924 0.211913
v 0.111508 -0.123009 -0.328949
v 0.083335 0.176236 -0.251202
v 0.070973 0.150093 -0.328949
v -0.130930 0.144434 -0.251202
v -0.070973 -0.150093 -0.328949
v -0.127951 0.006275 -0.385864
v 0.176236 -0.083335 -0.251202
v 0.006275 0.127951 -0.385864
v -0.008132 -0.165828 -0.328949
v -0.183545 -0.065691 -0.251202
v -0.156317 -0.055947 -0.328949
v -0.055946 0.156317 -0.328949
v -0.043168 0.120613 -0.385864
v -0.000000 -0.000000 -0.406697
v 0.156317 0.055946 -0.328949
v 0.194712 -0.009549 -0.251202
v 0.054762 0.115810 -0.385864
v -0.086038 0.094912 -0.385864
v -0.083335 -0.176236 -0.251202
v -0.144434 -0.130930 -0.251202
v -0.094912 -0.086038 -0.385864
v 0.150093 -0.070973 -0.328949
v -0.039046 -0.082574 -0.406696
v -0.067673 -0.061346 -0.406696
v 0.183545 0.065691 -0.251202
v -0.000000 -0.000000 -0.406697
v 0.156317 0.055946 -0.328949
v 0.120613 0.043167 -0.385864
v 0.194712 -0.009549 -0.251202
v 0.127951 -0.006275 -0.385864
v 0.165828 -0.008133 -0.328949
v 0.130930 -0.144434 -0.251202
v 0.111508 -0.123009 -0.328949
v 0.086038 -0.094912 -0.385864
v 0.065691 -0.183545 -0.251202
v 0.043168 -0.120613 -0.385864
v 0.055946 -0.156318 -0.328949
v 0.083335 0.176236 -0.251202
v 0.070973 0.150093 -0.328949
v 0.054762 0.115810 -0.385864
v 0.144434 0.130930 -0.251202
v 0.094912 0.086038 -0.385864
v 0.123009 0.111508 -0.328949
v -0.176236 0.083335 -0.251202
v -0.150093 0.070973 -0.328949
v -0.115810 0.054762 -0.385864
v -0.130930 0.144434 -0.251202
v -0.086038 0.094912 -0.385864
v -0.111508 0.123008 -0.328949
v -0.083335 -0.176236 -0.251202
v -0.070973 -0.150093 -0.328949
v -0.054762 -0.115810 -0.385864
v -0.144434 -0.130930 -0.251202
v -0.094912 -0.086038 -0.385864
v -0.123009 -0.111508 -0.328949
v -0.194712 0.009549 -0.251202
v -0.165828 0.008132 -0.328949
v -0.127951 0.006275 -0.385864
v 0.176236 -0.083335 -0.251202
v 0.150093 -0.070973 -0.328949
v 0.115810 -0.054762 -0.385864
v 0.009549 0.194712 -0.251202
v 0.008132 0.165828 -0.328949
v 0.006275 0.127951 -0.385864
v -0.009549 -0.194712 -0.251202
v -0.008132 -0.165828 -0.328949
v -0.006275 -0.127951 -0.385864
v -0.183545 -0.065691 -0.251202
v -0.120613 -0.043168 -0.385864
v -0.156317 -0.055947 -0.328949
v -0.065691 0.183545 -0.251202
v -0.055946 0.156317 -0.328949
v -0.043168 0.120613 -0.385864
v 0.085998 0.030779 -0.406696
v 0.091230 -0.004474 -0.406696
v 0.061346 -0.067673 -0.406696
v 0.030779 -0.085998 -0.406696
v 0.039046 0.082574 -0.406696
v 0.067673 0.061346 -0.406696
v -0.082574 0.039046 -0.406696
v -0.061346 0.067673 -0.406696
v -0.039046 -0.082574 -0.406696
v -0.067673 -0.061346 -0.406696
v -0.091230 0.004474 -0.406696
v 0.082574 -0.039046 -0.406696
v 0.004474 0.091230 -0.406696
v -0.004474 -0.091231 -0.406696
v -0.085998 -0.030779 -0.406696
v -0.030779 0.085998 -0.406696
v 0.183545 0.065691 -0.251202
v 0.165828 -0.008133 -0.328949
v -0.115810 0.054762 -0.385864
v -0.194712 0.009549 -0.251202
v -0.165828 0.008132 -0.328949
v 0.009549 0.194712 -0.251202
v -0.065691 0.183545 -0.251202
v 0.091230 -0.004474 -0.406696
v 0.082574 -0.039046 -0.406696
v -0.030779 0.085998 -0.406696
v 0.086038 -0.094912 -0.385864
v 0.065691 -0.183545 -0.251202
v -0.150093 0.070973 -0.328949
v -0.054762 -0.115810 -0.385864
v 0.085998 0.030779 -0.406696
v 0.030779 -0.085998 -0.406696
v 0.127951 -0.006275 -0.385864
v 0.043168 -0.120613 -0.385864
v 0.055946 -0.156318 -0.328949
v 0.123009 0.111508 -0.328949
v -0.176236 0.083335 -0.251202
v -0.111508 0.123008 -0.328949
v 0.115810 -0.054762 -0.385864
v 0.008132 0.165828 -0.328949
v -0.009549 -0.194712 -0.251202
v 0.067673 0.061346 -0.406696
v 0.004474 0.091230 -0.406696
v -0.004474 -0.091231 -0.406696
v -0.085998 -0.030779 -0.406696
v 0.194712 0.009549 0.212113
v 0.165828 0.008132 0.289860
v 0.130930 0.144434 0.212113
v 0.111508 0.123008 0.289860
v 0.043168 0.120613 0.346775
v 0.070973 -0.150093 0.289860
v 0.123009 -0.111508 0.289860
v -0.150093 -0.070973 0.289860
v -0.086038 -0.094912 0.346775
v -0.111508 -0.123009 0.289860
v -0.144434 0.130930 0.212113
v -0.123009 0.111508 0.289860
v -0.194712 -0.009549 0.212113
v -0.127951 -0.006275 0.346775
v 0.008132 -0.165828 0.289860
v 0.006275 -0.127952 0.346775
v -0.006275 0.127951 0.346775
v -0.120613 0.043168 0.346775
v -0.043168 -0.120613 0.346775
v 0.067673 -0.061346 0.367607
v -0.082574 -0.039046 0.367607
v -0.061346 -0.067674 0.367607
v 0.004474 -0.091231 0.367607
v -0.000000 -0.000000 0.367607
v 0.156317 -0.055946 0.289860
v -0.115810 -0.054762 0.346775
v -0.083335 0.176236 0.212113
v -0.070973 0.150093 0.289860
v -0.054762 0.115810 0.346775
v -0.165828 -0.008133 0.289860
v 0.176236 0.083335 0.212113
v 0.115810 0.054762 0.346775
v -0.183545 0.065691 0.212113
v 0.085998 -0.030779 0.367607
v 0.091230 0.004474 0.367607
v 0.030779 0.085998 0.367607
v -0.067673 0.061346 0.367607
v -0.091230 -0.004474 0.367607
v 0.082574 0.039046 0.367607
v -0.085998 0.030779 0.367607
v -0.030779 -0.085998 0.367607
v 0.120613 -0.043168 0.346775
v 0.127951 0.006275 0.346775
v 0.086038 0.094912 0.346775
v 0.055946 0.156317 0.289860
v 0.054762 -0.115811 0.346775
v 0.144434 -0.130930 0.212113
v 0.094912 -0.086038 0.346775
v -0.094912 0.086038 0.346775
v 0.150093 0.070973 0.289860
v -0.008132 0.165828 0.289860
v -0.156317 0.055946 0.289860
v -0.055946 -0.156318 0.289860
v 0.061346 0.067673 0.367607
v 0.039046 -0.082574 0.367607
v -0.039046 0.082574 0.367607
v -0.004474 0.091230 0.367607
vn 0.4642 0.1661 -0.8700
vn 0.6553 0.2345 -0.7180
vn 0.6952 -0.0341 -0.7180
vn 0.4924 -0.0241 -0.8700
vn 0.8413 0.3011 -0.4489
vn 0.8925 -0.0438 -0.4489
vn 0.8824 0.3158 -0.3486
vn 0.9361 -0.0459 -0.3486
vn 0.3311 -0.3653 -0.8700
vn 0.4675 -0.5157 -0.7180
vn 0.2345 -0.6553 -0.7180
vn 0.1661 -0.4642 -0.8700
vn 0.6002 -0.6621 -0.4489
vn 0.3011 -0.8413 -0.4489
vn 0.6295 -0.6944 -0.3486
vn 0.3158 -0.8824 -0.3486
vn 0.2107 0.4457 -0.8700
vn 0.2975 0.6292 -0.7180
vn 0.5157 0.4675 -0.7180
vn 0.3653 0.3311 -0.8700
vn 0.3820 0.8078 -0.4489
vn 0.6621 0.6002 -0.4489
vn 0.4007 0.8473 -0.3486
vn 0.6944 0.6295 -0.3486
vn -0.4457 0.2107 -0.8700
vn -0.6292 0.2975 -0.7180
vn -0.4675 0.5157 -0.7180
vn -0.3311 0.3653 -0.8700
vn -0.8078 0.3820 -0.4489
vn -0.6002 0.6621 -0.4489
vn -0.8473 0.4007 -0.3486
vn -0.6295 0.6944 -0.3486
vn -0.2107 -0.4457 -0.8700
vn -0.2975 -0.6292 -0.7180
vn -0.5157 -0.4675 -0.7180
vn -0.3653 -0.3311 -0.8700
vn -0.3820 -0.8078 -0.4489
vn -0.6621 -0.6002 -0.4489
vn -0.4007 -0.8473 -0.3486
vn -0.6944 -0.6295 -0.3486
vn -0.4924 0.0241 -0.8700
vn -0.6952 0.0341 -0.7180
vn -0.8925 0.0438 -0.4489
vn -0.9361 0.0459 -0.3486
vn 0.4457 -0.2107 -0.8700
vn 0.6292 -0.2975 -0.7180
vn 0.8078 -0.3820 -0.4489
vn 0.8473 -0.4007 -0.3486
vn 0.0241 0.4924 -0.8700
vn 0.0341 0.6952 -0.7180
vn 0.0438 0.8925 -0.4489
vn 0.0459 0.9361 -0.3486
vn -0.0241 -0.4924 -0.8700
vn -0.0341 -0.6952 -0.7180
vn -0.0438 -0.8925 -0.4489
vn -0.0459 -0.9361 -0.3486
vn -0.6553 -0.2345 -0.7180
vn -0.4642 -0.1661 -0.8700
vn -0.8413 -0.3011 -0.4489
vn -0.8824 -0.3158 -0.3486
vn -0.1661 0.4642 -0.8700
vn -0.2345 0.6553 -0.7180
vn -0.3011 0.8413 -0.4489
vn -0.3158 0.8824 -0.3486
vn -0.0000 -0.0000 -1.0000
vn 0.9258 0.3780 -0.0000
vn 0.9219 0.3874 -0.0000
vn 1.0000 -0.0002 0.0012
vn 0.9999 -0.0110 0.0012
vn -0.9219 0.3874 -0.0000
vn -0.9258 0.3780 -0.0000
vn -0.7107 0.7035 -0.0000
vn -0.7035 0.7107 -0.0000
vn 0.7107 0.7035 -0.0000
vn 0.7035 0.7107 -0.0000
vn -0.0299 -0.9996 0.0006
vn -0.0202 -0.9998 0.0004
vn -0.4083 -0.9128 0.0010
vn -0.4082 -0.9129 0.0010
vn 0.3595 -0.9331 0.0005
vn 0.3592 -0.9333 0.0005
vn 0.0051 1.0000 -0.0000
vn -0.0051 1.0000 -0.0000
vn 0.3780 0.9258 -0.0000
vn 0.3874 0.9219 -0.0000
vn 0.9181 -0.3964 0.0004
vn 0.9201 -0.3918 0.0004
vn 0.6985 -0.7156 0.0014
vn 0.6909 -0.7230 0.0015
vn -1.0000 0.0082 -0.0004
vn -1.0000 -0.0017 -0.0004
vn -0.7211 -0.6929 -0.0011
vn -0.7257 -0.6880 -0.0011
vn -0.3780 0.9258 -0.0000
vn -0.3874 0.9219 -0.0000
vn -0.9260 -0.3774 -0.0002
vn -0.9288 -0.3706 -0.0002
vn 0.4642 -0.1661 0.8700
vn 0.6553 -0.2345 0.7180
vn 0.6952 0.0341 0.7180
vn 0.4924 0.0241 0.8700
vn 0.7835 -0.2804 0.5545
vn 0.8689 0.1097 0.4826
vn 0.3311 0.3653 0.8700
vn 0.4675 0.5157 0.7180
vn 0.2345 0.6553 0.7180
vn 0.1661 0.4642 0.8700
vn 0.6002 0.6621 0.4489
vn 0.3011 0.8413 0.4489
vn 0.6295 0.6944 0.3486
vn 0.3158 0.8824 0.3486
vn 0.2107 -0.4457 0.8700
vn 0.2975 -0.6292 0.7180
vn 0.5157 -0.4675 0.7180
vn 0.3653 -0.3311 0.8700
vn 0.3836 -0.8091 0.4453
vn 0.5967 -0.6466 0.4753
vn 0.3577 -0.8671 0.3467
vn 0.5408 -0.7783 0.3191
vn -0.4457 -0.2107 0.8700
vn -0.6292 -0.2975 0.7180
vn -0.4675 -0.5157 0.7180
vn -0.3311 -0.3653 0.8700
vn -0.8082 -0.3811 0.4489
vn -0.6052 -0.6563 0.4507
vn -0.8532 -0.3878 0.3489
vn -0.6468 -0.6766 0.3519
vn -0.2107 0.4457 0.8700
vn -0.2975 0.6292 0.7180
vn -0.5157 0.4675 0.7180
vn -0.3653 0.3311 0.8700
vn -0.3820 0.8078 0.4489
vn -0.6621 0.6002 0.4489
vn -0.4007 0.8473 0.3486
vn -0.6944 0.6295 0.3486
vn -0.4924 -0.0241 0.8700
vn -0.6952 -0.0341 0.7180
vn -0.8922 -0.0425 0.4497
vn -0.9356 -0.0440 0.3502
vn 0.4457 0.2107 0.8700
vn 0.6292 0.2975 0.7180
vn 0.8078 0.3820 0.4489
vn 0.8473 0.4007 0.3486
vn 0.0241 -0.4924 0.8700
vn 0.0341 -0.6952 0.7180
vn 0.0303 -0.8940 0.4470
vn 0.0230 -0.9383 0.3450
vn -0.0241 0.4924 0.8700
vn -0.0341 0.6952 0.7180
vn -0.0438 0.8925 0.4489
vn -0.0459 0.9361 0.3486
vn 0.9113 0.2282 0.3427
vn -0.6553 0.2345 0.7180
vn -0.4642 0.1661 0.8700
vn -0.8413 0.3011 0.4489
vn -0.8824 0.3158 0.3486
vn -0.1661 -0.4642 0.8700
vn -0.2345 -0.6553 0.7180
vn -0.3029 -0.8431 0.4444
vn -0.3651 -0.8651 0.3441
vn -0.0000 -0.0000 1.0000
vn 0.9092 -0.3254 0.2597
vn 0.8841 -0.3153 0.3450
vn 0.8748 -0.3387 0.3464
vn 0.9313 -0.1539 0.3303
vn 0.7989 -0.4893 0.3498
vt 0.631157 0.611507
vt 0.636863 0.582822
vt 0.673599 0.598038
vt 0.657350 0.622356
vt 0.918861 0.001712
vt 0.938651 0.044724
vt 0.890631 0.048330
vt 0.881810 0.004494
vt 0.956076 0.104736
vt 0.899693 0.108969
vt 0.688247 0.668597
vt 0.716932 0.662891
vt 0.716932 0.702654
vt 0.688247 0.696948
vt 0.051493 0.582821
vt 0.026932 0.537545
vt 0.064464 0.537546
vt 0.080453 0.582822
vt 0.008202 0.475697
vt 0.052272 0.475699
vt 0.576613 0.622356
vt 0.560364 0.598038
vt 0.597100 0.582822
vt 0.602806 0.611507
vt 0.625288 0.000000
vt 0.617961 0.045277
vt 0.571373 0.045277
vt 0.589342 0.000000
vt 0.612373 0.107125
vt 0.557671 0.107125
vt 0.556565 0.723141
vt 0.532247 0.739390
vt 0.517031 0.702654
vt 0.545716 0.696948
vt 0.369574 0.000611
vt 0.361508 0.045746
vt 0.314899 0.044954
vt 0.333611 -0.000000
vt 0.354888 0.107483
vt 0.300161 0.106553
vt 0.657350 0.743189
vt 0.673599 0.767507
vt 0.636863 0.782723
vt 0.631157 0.754038
vt 0.157380 0.582823
vt 0.164163 0.537548
vt 0.211152 0.537547
vt 0.193636 0.582822
vt 0.169337 0.475700
vt 0.224510 0.475699
vt 0.576613 0.743189
vt 0.560364 0.767507
vt 0.409286 0.001292
vt 0.412975 0.046628
vt 0.415320 0.108519
vt 0.677398 0.642404
vt 0.701716 0.626155
vt 0.842211 0.007923
vt 0.839310 0.052774
vt 0.792501 0.057379
vt 0.806094 0.011477
vt 0.839433 0.114187
vt 0.784471 0.119595
vt 0.556565 0.642404
vt 0.532247 0.626155
vt 0.665004 0.000000
vt 0.669433 0.045277
vt 0.672810 0.107125
vt 0.677397 0.723141
vt 0.701715 0.739390
vt 0.117635 0.582823
vt 0.112654 0.537548
vt 0.108855 0.475700
vt 0.597100 0.782723
vt 0.602806 0.754038
vt 0.476122 0.002451
vt 0.499598 0.048131
vt 0.461466 0.047466
vt 0.446701 0.001938
vt 0.517031 0.110283
vt 0.472257 0.109502
vt 0.545716 0.668597
vt 0.517031 0.662891
vt 0.702441 0.000000
vt 0.717952 0.045277
vt 0.729781 0.107125
vt 0.947725 0.000000
vt 0.976059 0.042505
vt 1.000000 0.102130
vt 0.731901 0.000000
vt 0.756133 0.045277
vt 0.774612 0.107125
vt 0.616981 0.682772
vt 1.000000 0.470992
vt 0.945975 0.474872
vt 0.363470 0.476255
vt 0.306482 0.475285
vt 0.570303 0.475697
vt 0.525471 0.475697
vt 0.517031 0.107125
vt 0.094014 0.107129
vt 0.169339 0.107765
vt 0.052274 0.107763
vt 0.687711 0.475697
vt 0.627273 0.475697
vt 0.878347 0.480274
vt 0.828700 0.485353
vt 0.423895 0.477293
vt 0.000000 0.107125
vt 0.214922 0.107287
vt 0.742413 0.475697
vt 0.517031 0.478753
vt 0.475404 0.478025
vt 0.261606 0.474528
vt 0.259471 0.105870
vt 0.413512 0.653809
vt 0.420143 0.620471
vt 0.462839 0.638156
vt 0.443954 0.666419
vt 0.426485 0.620377
vt 0.419645 0.567692
vt 0.479538 0.567692
vt 0.472698 0.620377
vt 0.414429 0.495761
vt 0.484755 0.495761
vt 0.479863 0.720161
vt 0.513202 0.713530
vt 0.513202 0.759743
vt 0.479863 0.753111
vt 0.215666 0.000061
vt 0.235145 0.052736
vt 0.179811 0.052779
vt 0.172971 0.000094
vt 0.250000 0.124660
vt 0.185027 0.124710
vt 0.350119 0.666419
vt 0.331234 0.638156
vt 0.373930 0.620471
vt 0.380561 0.653809
vt 0.351111 0.620471
vt 0.321959 0.567813
vt 0.364310 0.567735
vt 0.383789 0.620410
vt 0.299728 0.495904
vt 0.349456 0.495811
vt 0.326819 0.783554
vt 0.298557 0.802438
vt 0.280871 0.759743
vt 0.314210 0.753111
vt 0.633789 0.000061
vt 0.614310 0.052736
vt 0.571958 0.052658
vt 0.601111 -0.000000
vt 0.599455 0.124660
vt 0.549727 0.124567
vt 0.443954 0.806854
vt 0.462839 0.835116
vt 0.420143 0.852802
vt 0.413512 0.819463
vt 0.084062 0.000061
vt 0.064582 0.052736
vt 0.022231 0.052658
vt 0.051384 -0.000000
vt 0.049728 0.124660
vt 0.000000 0.124567
vt 0.350119 0.806854
vt 0.331234 0.835116
vt 0.676484 0.000094
vt 0.669644 0.052779
vt 0.664428 0.124710
vt 0.467254 0.689719
vt 0.495517 0.670834
vt 0.248344 -0.000000
vt 0.277497 0.052658
vt 0.299728 0.124567
vt 0.326819 0.689719
vt 0.298556 0.670834
vt 0.922969 0.620378
vt 0.929809 0.567692
vt 0.985144 0.567735
vt 0.965665 0.620411
vt 0.935026 0.495761
vt 0.999999 0.495812
vt 0.467254 0.783554
vt 0.495516 0.802439
vt 0.126757 0.000094
vt 0.119917 0.052779
vt 0.114701 0.124710
vt 0.534873 0.567735
vt 0.515394 0.620410
vt 0.549727 0.495811
vt 0.373930 0.852802
vt 0.380561 0.819463
vt 0.765393 0.000061
vt 0.784873 0.052736
vt 0.729538 0.052779
vt 0.722698 0.000094
vt 0.799727 0.124660
vt 0.734754 0.124710
vt 0.314210 0.720161
vt 0.280871 0.713530
vt 0.876756 0.620377
vt 0.869916 0.567692
vt 0.864700 0.495761
vt 0.834060 0.620410
vt 0.814581 0.567734
vt 0.799727 0.495811
vt 0.397036 0.736636
vt 0.085775 0.754040
vt 0.080069 0.782724
vt 0.043333 0.767508
vt 0.059582 0.743190
vt 0.901800 0.587497
vt 0.894060 0.541898
vt 0.945289 0.537604
vt 0.941328 0.584183
vt 0.028685 0.696949
vt -0.000000 0.702655
vt -0.000000 0.662892
vt 0.028685 0.668598
vt 0.597643 0.582822
vt 0.582131 0.537545
vt 0.630651 0.537545
vt 0.635080 0.582822
vt 0.140319 0.743190
vt 0.156568 0.767508
vt 0.119832 0.782724
vt 0.114126 0.754040
vt 0.834432 0.594361
vt 0.806749 0.550794
vt 0.845411 0.546530
vt 0.864263 0.591071
vt 0.774612 0.490816
vt 0.160367 0.642405
vt 0.184685 0.626156
vt 0.199901 0.662892
vt 0.171216 0.668598
vt 0.215187 0.000000
vt 0.239081 0.045277
vt 0.200265 0.045279
vt 0.185236 0.000001
vt 0.259471 0.107286
vt 0.059582 0.622357
vt 0.043333 0.598039
vt 0.080069 0.582823
vt 0.085775 0.611508
vt 0.302434 0.582379
vt 0.279004 0.536689
vt 0.317223 0.537333
vt 0.331924 0.582877
vt 0.140319 0.622357
vt 0.156568 0.598040
vt 0.409079 0.584196
vt 0.417219 0.539043
vt 0.463772 0.539849
vt 0.444999 0.584818
vt 0.039534 0.723142
vt 0.015216 0.739391
vt 0.568183 0.582822
vt 0.543950 0.537545
vt 0.160367 0.723142
vt 0.184685 0.739391
vt 0.107885 0.000001
vt 0.100015 0.045279
vt 0.053844 0.045277
vt 0.072260 0.000000
vt 0.039535 0.642405
vt 0.015217 0.626156
vt 0.674795 0.582822
vt 0.682123 0.537545
vt 0.728711 0.537545
vt 0.710742 0.582822
vt 0.991300 0.534299
vt 0.976829 0.581634
vt 0.119832 0.582823
vt 0.114126 0.611508
vt 0.365758 0.538160
vt 0.369372 0.583514
vt 0.171216 0.696949
vt 0.199901 0.702655
vt 0.147557 0.000001
vt 0.151431 0.045279
vt 0.099951 0.682774
s 1
usemtl Brass
f 124/1/1 1/2/2 126/3/3 117/4/4
f 1/5/2 35/6/5 111/7/6 126/8/3
f 35/6/5 110/9/7 36/10/8 111/7/6
f 8/11/9 120/12/10 127/13/11 125/14/12
f 120/15/10 21/16/13 128/17/14 127/18/11
f 21/16/13 2/19/15 121/20/16 128/17/14
f 9/21/17 37/22/18 4/23/19 135/24/20
f 37/25/18 23/26/21 129/27/22 4/28/19
f 23/26/21 22/29/23 3/30/24 129/27/22
f 10/31/25 112/32/26 38/33/27 11/34/28
f 112/35/26 122/36/29 131/37/30 38/38/27
f 122/36/29 130/39/31 24/40/32 131/37/30
f 43/41/33 123/42/34 41/43/35 44/44/36
f 123/45/34 25/46/37 5/47/38 41/48/35
f 25/46/37 39/49/39 40/50/40 5/47/38
f 12/51/41 26/52/42 112/32/26 10/31/25
f 26/53/42 114/54/43 122/36/29 112/35/26
f 114/54/43 113/55/44 130/39/31 122/36/29
f 118/56/45 132/57/46 120/12/10 8/11/9
f 132/58/46 42/59/47 21/60/13 120/61/10
f 42/59/47 27/62/48 2/63/15 21/60/13
f 136/64/49 28/65/50 37/22/18 9/21/17
f 28/66/50 133/67/51 23/26/21 37/25/18
f 133/67/51 115/68/52 22/29/23 23/26/21
f 137/69/53 6/70/54 123/42/34 43/41/33
f 6/71/54 29/72/55 25/46/37 123/45/34
f 29/72/55 134/73/56 39/49/39 25/46/37
f 117/4/4 126/3/3 132/57/46 118/56/45
f 126/8/3 111/7/6 42/59/47 132/58/46
f 111/7/6 36/10/8 27/62/48 42/59/47
f 44/44/36 41/43/35 7/74/57 138/75/58
f 41/76/35 5/77/38 31/78/59 7/79/57
f 5/77/38 40/80/40 30/81/60 31/78/59
f 119/82/61 33/83/62 28/65/50 136/64/49
f 33/84/62 32/85/63 133/67/51 28/66/50
f 32/85/63 116/86/64 115/68/52 133/67/51
f 135/24/20 4/23/19 1/2/2 124/1/1
f 4/87/19 129/88/22 35/6/5 1/5/2
f 129/88/22 3/89/24 110/9/7 35/6/5
f 11/34/28 38/33/27 33/83/62 119/82/61
f 38/90/27 131/91/30 32/85/63 33/84/62
f 131/91/30 24/92/32 116/86/64 32/85/63
f 125/14/12 127/13/11 6/70/54 137/69/53
f 127/18/11 128/17/14 29/72/55 6/71/54
f 128/17/14 121/20/16 134/73/56 29/72/55
f 138/75/58 7/74/57 26/52/42 12/51/41
f 7/79/57 31/78/59 114/54/43 26/53/42
f 31/78/59 30/81/60 113/55/44 114/54/43
f 34/93/65 124/1/65 117/4/65
f 34/93/65 8/11/65 125/14/65
f 34/93/65 9/21/65 135/24/65
f 34/93/65 10/31/65 11/34/65
f 34/93/65 12/51/65 10/31/65
f 34/93/65 118/56/65 8/11/65
f 34/93/65 136/64/65 9/21/65
f 34/93/65 137/69/65 43/41/65
f 34/93/65 117/4/65 118/56/65
f 34/93/65 44/44/65 138/75/65
f 34/93/65 119/82/65 136/64/65
f 34/93/65 135/24/65 124/1/65
f 34/93/65 11/34/65 119/82/65
f 34/93/65 125/14/65 137/69/65
f 34/93/65 138/75/65 12/51/65
f 110/9/66 169/94/67 139/95/68 36/10/69
f 130/39/70 171/96/71 149/97/72 24/40/73
f 3/30/74 141/98/75 169/99/67 110/100/66
f 134/73/76 19/101/77 15/102/78 39/49/79
f 121/20/80 13/103/81 19/101/77 134/73/76
f 115/68/82 18/104/83 14/105/84 22/29/85
f 27/62/86 17/106/87 185/107/88 2/63/89
f 113/55/90 151/108/91 171/96/71 130/39/70
f 2/19/89 185/109/88 13/103/81 121/20/80
f 39/49/79 15/102/78 16/110/92 40/50/93
f 116/86/94 165/111/95 18/104/83 115/68/82
f 40/80/93 16/112/92 20/113/96 30/81/97
f 24/40/73 149/97/72 165/114/95 116/115/94
f 22/29/85 14/105/84 141/98/75 3/30/74
f 36/10/69 139/95/68 17/106/87 27/62/86
f 30/81/97 20/113/96 151/108/91 113/55/90
f 34/93/65 43/41/65 44/44/65
f 94/116/1 48/117/2 50/118/3 95/119/4
f 48/120/2 47/121/5 51/122/6 50/123/3
f 47/121/5 45/124/7 49/125/8 51/122/6
f 96/126/9 54/127/10 56/128/11 97/129/12
f 54/130/10 53/131/13 57/132/14 56/133/11
f 53/131/13 52/134/15 55/135/16 57/132/14
f 98/136/17 60/137/18 62/138/19 99/139/20
f 60/140/18 59/141/21 63/142/22 62/143/19
f 59/141/21 58/144/23 61/145/24 63/142/22
f 100/146/25 66/147/26 68/148/27 101/149/28
f 66/150/26 65/151/29 69/152/30 68/153/27
f 65/151/29 64/154/31 67/155/32 69/152/30
f 102/156/33 72/157/34 74/158/35 103/159/36
f 72/160/34 71/161/37 75/162/38 74/163/35
f 71/161/37 70/164/39 73/165/40 75/162/38
f 104/166/41 78/167/42 66/147/26 100/146/25
f 78/168/42 77/169/43 65/151/29 66/150/26
f 77/169/43 76/170/44 64/154/31 65/151/29
f 105/171/45 81/172/46 54/127/10 96/126/9
f 81/173/46 80/174/47 53/131/13 54/130/10
f 80/174/47 79/175/48 52/134/15 53/131/13
f 106/176/49 84/177/50 60/137/18 98/136/17
f 84/178/50 83/179/51 59/180/21 60/181/18
f 83/179/51 82/182/52 58/183/23 59/180/21
f 107/184/53 87/185/54 72/157/34 102/156/33
f 87/186/54 86/187/55 71/161/37 72/160/34
f 86/187/55 85/188/56 70/164/39 71/161/37
f 95/119/4 50/118/3 81/172/46 105/171/45
f 50/123/3 51/122/6 80/189/47 81/190/46
f 51/122/6 49/125/8 79/191/48 80/189/47
f 103/159/36 74/158/35 89/192/57 108/193/58
f 74/194/35 75/195/38 90/196/59 89/197/57
f 75/195/38 73/198/40 88/199/60 90/196/59
f 109/200/61 93/201/62 84/177/50 106/176/49
f 93/202/62 92/203/63 83/179/51 84/178/50
f 92/203/63 91/204/64 82/182/52 83/179/51
f 99/139/20 62/138/19 48/117/2 94/116/1
f 62/143/19 63/142/22 47/121/5 48/120/2
f 63/142/22 61/145/24 45/124/7 47/121/5
f 101/149/28 68/148/27 93/201/62 109/200/61
f 68/205/27 69/206/30 92/203/63 93/202/62
f 69/206/30 67/207/32 91/204/64 92/203/63
f 97/129/12 56/128/11 87/185/54 107/184/53
f 56/133/11 57/132/14 86/187/55 87/186/54
f 57/132/14 55/135/16 85/188/56 86/187/55
f 108/193/58 89/192/57 78/167/42 104/166/41
f 89/197/57 90/196/59 77/169/43 78/168/42
f 90/196/59 88/199/60 76/170/44 77/169/43
f 46/208/65 94/116/65 95/119/65
f 46/208/65 96/126/65 97/129/65
f 46/208/65 98/136/65 99/139/65
f 46/208/65 100/146/65 101/149/65
f 46/208/65 102/156/65 103/159/65
f 46/208/65 104/166/65 100/146/65
f 46/208/65 105/171/65 96/126/65
f 46/208/65 106/176/65 98/136/65
f 46/208/65 107/184/65 102/156/65
f 46/208/65 95/119/65 105/171/65
f 46/208/65 103/159/65 108/193/65
f 46/208/65 109/200/65 106/176/65
f 46/208/65 99/139/65 94/116/65
f 46/208/65 101/149/65 109/200/65
f 46/208/65 97/129/65 107/184/65
f 46/208/65 108/193/65 104/166/65
f 172/209/98 180/210/99 181/211/100 173/212/101
f 180/213/99 163/214/102 140/215/103 181/216/100
f 192/217/104 182/218/105 143/219/106 174/220/107
f 182/221/105 142/222/108 183/223/109 143/224/106
f 142/222/108 141/98/110 14/105/111 183/223/109
f 193/225/112 184/226/113 186/227/114 158/228/115
f 184/229/113 144/230/116 145/231/117 186/232/114
f 144/230/116 13/233/118 185/107/119 145/231/117
f 159/234/120 164/235/121 147/236/122 160/237/123
f 164/238/121 146/239/124 148/240/125 147/241/122
f 146/239/124 20/242/126 16/110/127 148/240/125
f 194/243/128 167/244/129 187/245/130 175/246/131
f 167/247/129 166/248/132 150/249/133 187/250/130
f 166/248/132 165/114/134 149/97/135 150/249/133
f 176/251/136 152/252/137 164/235/121 159/234/120
f 152/253/137 168/254/138 146/255/124 164/256/121
f 168/254/138 151/108/139 20/113/126 146/255/124
f 177/257/140 170/258/141 182/218/105 192/217/104
f 170/259/141 188/260/142 142/222/108 182/221/105
f 188/260/142 169/99/143 141/98/110 142/222/108
f 161/261/144 154/262/145 184/226/113 193/225/112
f 154/263/145 153/264/146 144/265/116 184/266/113
f 153/264/146 19/101/147 13/103/118 144/265/116
f 195/267/148 155/268/149 167/244/129 194/243/128
f 155/269/149 189/270/150 166/271/132 167/272/129
f 189/270/150 18/104/151 165/111/134 166/271/132
f 173/212/101 181/211/100 170/258/141 177/257/140
f 181/216/100 140/215/103 188/273/142 170/274/141
f 140/215/103 139/95/152 169/94/143 188/273/142
f 175/246/131 187/245/130 156/275/153 178/276/154
f 187/250/130 150/249/133 190/277/155 156/278/153
f 150/249/133 149/97/135 171/96/156 190/277/155
f 179/279/157 157/280/158 154/262/145 161/261/144
f 157/281/158 191/282/159 153/264/146 154/263/145
f 191/282/159 15/102/160 19/101/147 153/264/146
f 158/228/115 186/227/114 180/210/99 172/209/98
f 186/232/114 145/231/117 163/214/102 180/213/99
f 160/237/123 147/236/122 157/280/158 179/279/157
f 147/241/122 148/240/125 191/282/159 157/281/158
f 148/240/125 16/110/127 15/102/160 191/282/159
f 174/220/107 143/219/106 155/268/149 195/267/148
f 143/224/106 183/223/109 189/270/150 155/269/149
f 183/223/109 14/105/111 18/104/151 189/270/150
f 178/276/154 156/275/153 152/252/137 176/251/136
f 156/278/153 190/277/155 168/254/138 152/253/137
f 190/277/155 171/96/156 151/108/139 168/254/138
f 162/283/161 192/217/161 174/220/161
f 162/283/161 193/225/161 158/228/161
f 162/283/161 159/234/161 160/237/161
f 162/283/161 194/243/161 175/246/161
f 162/283/161 176/251/161 159/234/161
f 162/283/161 177/257/161 192/217/161
f 162/283/161 161/261/161 193/225/161
f 162/283/161 195/267/161 194/243/161
f 162/283/161 179/279/161 161/261/161
f 162/283/161 158/228/161 172/209/161
f 162/283/161 160/237/161 179/279/161
f 162/283/161 174/220/161 195/267/161
f 145/231/162 185/107/162 139/95/162 140/215/162 163/214/162
f 162/283/161 172/209/161 173/212/161
f 162/283/161 173/212/161 177/257/161
f 162/283/161 175/246/161 178/276/161
f 162/283/161 178/276/161 176/251/161
f 163/214/163 17/106/164 139/95/165 140/215/165
f 145/231/166 185/107/166 17/106/164 163/214/163
